<?xml version="1.0" standalone="no"?>
<!DOCTYPE svg PUBLIC "-//W3C//DTD SVG 20010904//EN"
 "http://www.w3.org/TR/2001/REC-SVG-20010904/DTD/svg10.dtd">
<svg version="1.0" xmlns="http://www.w3.org/2000/svg"
 width="980.000000pt" height="980.000000pt" viewBox="0 0 980.000000 980.000000"
 preserveAspectRatio="xMidYMid meet">

<g transform="translate(0.000000,980.000000) scale(0.100000,-0.100000)"
fill="#000000" stroke="none">
<path d="M4560 9789 c-1035 -75 -1998 -463 -2800 -1128 -150 -123 -501 -475
-622 -621 -534 -647 -880 -1372 -1042 -2180 -259 -1291 18 -2648 761 -3727
277 -403 628 -778 1018 -1087 680 -539 1533 -896 2400 -1005 1488 -188 2966
303 4028 1338 182 177 332 343 463 512 735 946 1100 2126 1024 3314 -70 1094
-491 2109 -1216 2935 -112 128 -386 398 -509 501 -763 642 -1665 1026 -2665
1134 -174 19 -664 27 -840 14z m636 -919 c1198 -94 2265 -701 2961 -1685 378
-535 618 -1165 699 -1840 14 -113 19 -222 19 -445 0 -397 -29 -631 -122 -995
-374 -1467 -1579 -2607 -3073 -2908 -483 -98 -1021 -101 -1500 -11 -1035 195
-1927 768 -2537 1629 -360 508 -608 1138 -688 1748 -51 396 -44 846 21 1212
121 679 395 1282 828 1825 128 160 436 468 591 591 669 531 1409 822 2245 882
109 8 438 6 556 -3z"/>
<path d="M4745 7025 c-197 -55 -371 -222 -436 -420 -10 -30 -15 -171 -19 -565
l-5 -525 -525 -5 c-392 -5 -535 -9 -565 -19 -199 -65 -369 -242 -420 -438 -19
-73 -19 -233 0 -306 51 -196 221 -373 420 -438 30 -10 173 -14 565 -19 l525
-5 5 -525 c4 -398 9 -535 19 -565 67 -202 241 -368 437 -419 71 -18 209 -21
286 -5 29 6 91 29 136 51 156 74 279 224 322 393 19 73 20 111 20 577 l0 498
503 0 c558 0 560 0 697 67 56 27 94 56 151 113 121 122 179 261 179 430 0 169
-58 308 -179 430 -57 57 -95 86 -151 113 -137 67 -139 67 -697 67 l-503 0 0
498 c0 464 -1 504 -20 576 -28 112 -73 189 -161 277 -59 61 -93 85 -160 117
-46 22 -108 45 -137 51 -71 15 -226 12 -287 -4z"/>
</g>
</svg>
