<?xml version="1.0" standalone="no"?>
<!DOCTYPE svg PUBLIC "-//W3C//DTD SVG 20010904//EN"
 "http://www.w3.org/TR/2001/REC-SVG-20010904/DTD/svg10.dtd">
<svg version="1.0" xmlns="http://www.w3.org/2000/svg"
 width="800.000000pt" height="800.000000pt" viewBox="0 0 800.000000 800.000000"
 preserveAspectRatio="xMidYMid meet">

<g transform="translate(0.000000,800.000000) scale(0.100000,-0.100000)"
fill="#000000" stroke="none">
<path d="M3745 7979 c-1315 -88 -2493 -810 -3172 -1944 -251 -420 -426 -897
-507 -1380 -39 -235 -50 -379 -50 -665 1 -318 19 -507 74 -784 195 -965 740
-1821 1535 -2414 592 -441 1250 -692 2025 -773 150 -16 562 -16 715 0 512 54
954 178 1390 391 1165 570 1991 1683 2189 2951 38 239 49 383 49 634 0 251
-11 395 -49 634 -196 1257 -1010 2363 -2162 2940 -620 310 -1345 456 -2037
410z m655 -355 c846 -98 1590 -454 2180 -1044 549 -549 897 -1224 1024 -1986
36 -212 46 -348 46 -599 0 -251 -10 -387 -46 -600 -100 -601 -345 -1159 -718
-1638 -84 -109 -248 -296 -269 -309 -7 -3 -55 21 -107 54 -195 123 -398 213
-830 366 -298 106 -343 124 -455 176 -166 78 -286 172 -333 261 -12 24 -16 80
-20 297 l-5 267 56 61 c126 136 265 379 331 581 31 95 36 104 79 135 95 69
178 205 216 354 30 119 42 245 31 325 -13 90 -15 96 -57 181 l-35 72 36 148
c20 82 48 223 63 314 24 147 27 193 27 415 1 222 -2 263 -22 363 -88 436 -320
709 -689 813 -66 18 -87 30 -135 74 -233 216 -667 292 -1169 205 -675 -117
-1075 -529 -1164 -1199 -19 -138 -19 -429 0 -604 14 -133 64 -426 85 -496 7
-27 6 -38 -5 -51 -32 -35 -76 -150 -87 -229 -22 -150 32 -401 115 -538 36 -59
115 -142 153 -161 15 -8 30 -39 52 -109 61 -192 187 -418 325 -582 l70 -84 -6
-258 c-7 -295 -9 -303 -95 -387 -103 -100 -261 -181 -577 -296 -421 -154 -492
-180 -605 -228 -133 -57 -272 -129 -381 -199 -42 -27 -78 -49 -81 -49 -9 0
-202 219 -273 310 -793 1014 -991 2384 -518 3585 395 1002 1218 1783 2241
2124 273 92 631 161 927 181 163 11 461 3 625 -16z"/>
</g>
</svg>
