<?xml version="1.0" standalone="no"?>
<!DOCTYPE svg PUBLIC "-//W3C//DTD SVG 20010904//EN"
 "http://www.w3.org/TR/2001/REC-SVG-20010904/DTD/svg10.dtd">
<svg version="1.0" xmlns="http://www.w3.org/2000/svg"
 width="900.000000pt" height="900.000000pt" viewBox="0 0 900.000000 900.000000"
 preserveAspectRatio="xMidYMid meet">

<g transform="translate(0.000000,900.000000) scale(0.100000,-0.100000)"
fill="#000000" stroke="none">
<path d="M915 8990 c-11 -5 -33 -9 -49 -9 -48 -1 -194 -50 -276 -91 -262 -133
-440 -340 -542 -630 l-33 -95 0 -3660 0 -3660 23 -75 c109 -348 355 -604 688
-716 44 -14 106 -31 139 -37 86 -16 7184 -16 7270 0 332 62 621 287 765 596
21 45 49 116 62 157 l23 75 0 3135 c0 2616 -2 3142 -14 3180 -50 166 -193 370
-465 665 -385 416 -862 864 -1072 1006 -84 56 -207 123 -244 132 -14 3 -52 12
-85 21 -53 14 -394 15 -3115 15 -1680 0 -3064 -4 -3075 -9z m5806 -367 c111
-55 178 -144 199 -264 8 -45 10 -438 8 -1304 -3 -1162 -4 -1243 -21 -1285 -40
-101 -122 -180 -220 -214 -44 -15 -248 -16 -2360 -16 -1285 0 -2325 4 -2342 9
-91 26 -187 110 -228 199 l-22 47 0 1300 0 1300 27 57 c49 105 150 182 261
198 29 4 1083 7 2342 6 l2290 -1 66 -32z m1039 -4154 c66 -31 132 -95 168
-164 l27 -50 0 -1830 0 -1830 -25 -50 c-52 -105 -154 -178 -272 -196 -84 -12
-6232 -12 -6316 0 -118 18 -220 91 -272 196 l-25 50 0 1830 0 1830 24 45 c46
88 104 141 189 176 l57 24 3195 -3 3195 -2 55 -26z"/>
<path d="M5207 8298 c-16 -12 -17 -92 -15 -1208 l3 -1195 515 0 515 0 3 1199
c2 953 0 1201 -10 1208 -7 4 -234 8 -504 8 -377 0 -494 -3 -507 -12z"/>
</g>
</svg>
